<svg width="68" height="64" viewBox="0 0 68 64" fill="none" xmlns="http://www.w3.org/2000/svg">
<path d="M59 51.25V46.6667H19.8333L22.3333 42.0834L60.6666 38.3334L67.3333 13.3334H16.0833L13.1666 0.833374H0.666626V5.00004H9.83329L18.5833 40L13.1666 50.8334V57.0834C13.1666 60.4167 16.0833 63.3334 19.4166 63.3334C22.75 63.3334 25.6666 60.4167 25.6666 57.0834C25.6666 53.75 22.75 50.8334 19.4166 50.8334H50.6666V57.0834C50.6666 60.4167 53.5833 63.3334 56.9166 63.3334C60.25 63.3334 63.1666 60.4167 63.1666 57.0834C63.1666 54.1667 61.5 52.0834 59 51.25V51.25Z" fill="#3C2F41"/>
</svg>
