<svg width="54" height="57" viewBox="0 0 54 57" fill="none" xmlns="http://www.w3.org/2000/svg">
<path fill-rule="evenodd" clip-rule="evenodd" d="M0.083374 49.2084C0.083374 41.8561 6.46332 35.8959 14.3334 35.8959H39.6667C47.5368 35.8959 53.9167 41.8561 53.9167 49.2084V55.125C53.9167 55.942 53.2078 56.6042 52.3334 56.6042C51.4589 56.6042 50.75 55.942 50.75 55.125V49.2084C50.75 43.4899 45.7879 38.8542 39.6667 38.8542H14.3334C8.21222 38.8542 3.25004 43.4899 3.25004 49.2084V55.125C3.25004 55.942 2.54116 56.6042 1.66671 56.6042C0.792256 56.6042 0.083374 55.942 0.083374 55.125V49.2084Z" fill="#414141"/>
<path fill-rule="evenodd" clip-rule="evenodd" d="M12.75 13.7084C12.75 6.35608 19.1299 0.395874 27 0.395874C34.8701 0.395874 41.25 6.35608 41.25 13.7084C41.25 21.0607 34.8701 27.0209 27 27.0209C19.1299 27.0209 12.75 21.0607 12.75 13.7084ZM27 3.35421C20.8788 3.35421 15.9167 7.98992 15.9167 13.7084C15.9167 19.4268 20.8788 24.0625 27 24.0625C33.1212 24.0625 38.0833 19.4268 38.0833 13.7084C38.0833 7.98992 33.1212 3.35421 27 3.35421Z" fill="#414141"/>
</svg>
